<svg xmlns="http://www.w3.org/2000/svg" viewBox="0 0 32 32">
  <defs>
    <linearGradient id="grad" x1="0%" y1="0%" x2="100%" y2="100%">
      <stop offset="0%" style="stop-color:#3b82f6;stop-opacity:1" />
      <stop offset="100%" style="stop-color:#2563eb;stop-opacity:1" />
    </linearGradient>
  </defs>
  <!-- Background circle -->
  <circle cx="16" cy="16" r="16" fill="url(#grad)"/>
  <!-- Building/Enterprise icon -->
  <path d="M10 12h3v2h-3v-2zm0 4h3v2h-3v-2zm0 4h3v2h-3v-2z" fill="white" opacity="0.9"/>
  <path d="M19 12h3v2h-3v-2zm0 4h3v2h-3v-2zm0 4h3v2h-3v-2z" fill="white" opacity="0.9"/>
  <rect x="8" y="8" width="16" height="18" rx="1" fill="none" stroke="white" stroke-width="1.5" opacity="0.95"/>
  <!-- AI spark -->
  <circle cx="24" cy="8" r="4" fill="#fbbf24"/>
  <path d="M24 6 l0.5 1.5 1.5 0.5 -1.5 0.5 -0.5 1.5 -0.5 -1.5 -1.5 -0.5 1.5 -0.5z" fill="white"/>
</svg>
